<svg width="100" height="100" viewBox="0 0 100 100" xmlns="http://www.w3.org/2000/svg">
  <circle cx="50" cy="50" r="45" fill="#4CAF50"/>
  <circle cx="50" cy="40" r="12" fill="white"/>
  <path d="M35 55 Q35 50 40 50 L60 50 Q65 50 65 55 L65 65 Q65 70 60 70 L40 70 Q35 70 35 65 Z" fill="white"/>
  <path d="M30 70 Q30 75 35 75 L65 75 Q70 75 70 70" stroke="white" stroke-width="3" fill="none"/>
  <circle cx="38" cy="58" r="2" fill="#4CAF50"/>
  <circle cx="62" cy="58" r="2" fill="#4CAF50"/>
  <path d="M45 48 L45 45 Q45 42 48 42 L52 42 Q55 42 55 45 L55 48" stroke="white" stroke-width="2" fill="none"/>
</svg>
