<svg xmlns="http://www.w3.org/2000/svg" xmlns:xlink="http://www.w3.org/1999/xlink" version="1.1" width="256" height="256" viewBox="0 0 256 256" xml:space="preserve">
<g style="stroke: none; stroke-width: 0; stroke-dasharray: none; stroke-linecap: butt; stroke-linejoin: miter; stroke-miterlimit: 10; fill: none; fill-rule: nonzero; opacity: 1;" transform="translate(1.4065934065934016 1.4065934065934016) scale(2.81 2.81)">
	<polygon points="14.16,37.8 25.93,31.98 45,31.43 56.05,35.6 62.32,39.64 37.03,43.21 17.91,40.77 " style="stroke: none; stroke-width: 1; stroke-dasharray: none; stroke-linecap: butt; stroke-linejoin: miter; stroke-miterlimit: 10; fill: rgb(32,36,30); fill-rule: nonzero; opacity: 1;" transform="  matrix(1 0 0 1 0 0) "/>
	<path d="M 85.347 42.526 l -23.367 -4.73 l -8.231 -4.776 c -3.505 -2.034 -7.486 -3.105 -11.538 -3.105 h -4.915 c -0.002 0 -0.004 0 -0.006 0 h -5.611 c -4.304 0 -8.544 1.05 -12.35 3.06 l -6.167 3.255 c -1.231 0.65 -2.603 0.99 -3.995 0.99 H 6.703 c -2.434 0 -4.528 1.722 -4.998 4.11 l -1.642 8.345 c -0.342 1.738 0.735 3.44 2.451 3.875 l 7.945 2.016 c 0.637 0.162 1.289 0.257 1.945 0.284 l 15.742 0.65 h 37.26 c -0.032 -0.064 0.031 0.065 0 0 l 16.555 -0.288 l 4.521 -0.49 C 88.484 55.503 90 53.813 90 51.801 v -3.584 C 90 45.465 88.043 43.072 85.347 42.526 z M 42.21 32.914 c 3.519 0 6.988 0.934 10.032 2.7 l 5.752 3.337 c -1.497 0.454 -3.046 0.692 -4.628 0.692 h -13.7 l -1.485 -6.729 H 42.21 z M 20.728 35.627 c 3.361 -1.775 7.148 -2.713 10.949 -2.713 h 4.432 l 1.485 6.729 H 25.017 c -2.192 0 -4.313 -0.647 -6.132 -1.872 l -0.975 -0.656 L 20.728 35.627 z" style="stroke: none; stroke-width: 1; stroke-dasharray: none; stroke-linecap: butt; stroke-linejoin: miter; stroke-miterlimit: 10; fill: rgb(219,51,40); fill-rule: nonzero; opacity: 1;" transform=" matrix(1 0 0 1 0 0) " stroke-linecap="round"/>
	<path d="M 86.483 50.72 l -4.521 0.49 l -16.555 0.288 c 0.016 0.033 0.007 0.016 -0.001 0 H 28.147 l -15.742 -0.65 c -0.657 -0.027 -1.309 -0.122 -1.945 -0.284 l -7.945 -2.016 c -0.834 -0.212 -1.513 -0.726 -1.956 -1.395 l -0.496 2.519 c -0.342 1.738 0.735 3.44 2.451 3.875 l 7.945 2.016 c 0.637 0.162 1.289 0.257 1.945 0.284 l 15.742 0.65 h 37.259 c 0.008 0.016 0.016 0.033 0.001 0 l 16.555 -0.288 l 4.521 -0.49 C 88.484 55.503 90 53.813 90 51.801 v -3.584 c 0 -0.248 -0.034 -0.488 -0.064 -0.729 C 89.636 49.186 88.251 50.528 86.483 50.72 z" style="stroke: none; stroke-width: 1; stroke-dasharray: none; stroke-linecap: butt; stroke-linejoin: miter; stroke-miterlimit: 10; fill: rgb(191,37,37); fill-rule: nonzero; opacity: 1;" transform=" matrix(1 0 0 1 0 0) " stroke-linecap="round"/>
	<path d="M 73.615 60.086 c -4.237 0 -7.685 -3.447 -7.685 -7.684 c 0 -4.237 3.447 -7.685 7.685 -7.685 c 4.236 0 7.684 3.447 7.684 7.685 C 81.299 56.639 77.852 60.086 73.615 60.086 z" style="stroke: none; stroke-width: 1; stroke-dasharray: none; stroke-linecap: butt; stroke-linejoin: miter; stroke-miterlimit: 10; fill: rgb(32,36,30); fill-rule: nonzero; opacity: 1;" transform=" matrix(1 0 0 1 0 0) " stroke-linecap="round"/>
	<path d="M 19.939 60.086 c -4.237 0 -7.684 -3.447 -7.684 -7.684 c 0 -4.237 3.447 -7.685 7.684 -7.685 s 7.684 3.447 7.684 7.685 C 27.623 56.639 24.176 60.086 19.939 60.086 z" style="stroke: none; stroke-width: 1; stroke-dasharray: none; stroke-linecap: butt; stroke-linejoin: miter; stroke-miterlimit: 10; fill: rgb(32,36,30); fill-rule: nonzero; opacity: 1;" transform=" matrix(1 0 0 1 0 0) " stroke-linecap="round"/>
	<path d="M 73.606 56.408 c -1.041 0 -2.084 -0.417 -2.822 -1.17 c -0.193 -0.177 -0.352 -0.385 -0.496 -0.609 c -0.144 -0.225 -0.272 -0.449 -0.37 -0.691 c -0.111 -0.24 -0.175 -0.496 -0.24 -0.753 c -0.049 -0.257 -0.064 -0.529 -0.064 -0.786 c 0 -1.057 0.417 -2.084 1.17 -2.822 c 0.93 -0.946 2.31 -1.378 3.608 -1.106 c 0.257 0.047 0.514 0.128 0.753 0.224 c 0.241 0.113 0.482 0.224 0.691 0.368 c 0.224 0.146 0.432 0.321 0.609 0.514 c 0.753 0.738 1.17 1.765 1.17 2.822 c 0 0.257 -0.016 0.529 -0.08 0.786 c -0.047 0.257 -0.128 0.514 -0.224 0.753 c -0.097 0.241 -0.224 0.465 -0.37 0.691 c -0.144 0.224 -0.304 0.432 -0.496 0.609 C 75.708 55.991 74.665 56.408 73.606 56.408 z" style="stroke: none; stroke-width: 1; stroke-dasharray: none; stroke-linecap: butt; stroke-linejoin: miter; stroke-miterlimit: 10; fill: rgb(80,83,78); fill-rule: nonzero; opacity: 1;" transform=" matrix(1 0 0 1 0 0) " stroke-linecap="round"/>
	<path d="M 19.94 56.389 c -1.056 0 -2.096 -0.431 -2.832 -1.167 c -0.736 -0.736 -1.168 -1.777 -1.168 -2.833 c 0 -1.055 0.432 -2.08 1.168 -2.831 c 1.487 -1.488 4.176 -1.488 5.664 0 c 0.736 0.752 1.168 1.777 1.168 2.831 c 0 1.056 -0.432 2.081 -1.168 2.833 C 22.02 55.958 20.995 56.389 19.94 56.389 z" style="stroke: none; stroke-width: 1; stroke-dasharray: none; stroke-linecap: butt; stroke-linejoin: miter; stroke-miterlimit: 10; fill: rgb(80,83,78); fill-rule: nonzero; opacity: 1;" transform=" matrix(1 0 0 1 0 0) " stroke-linecap="round"/>
	<path d="M 88.804 44.718 h -6.561 v 0 c 1.266 1.542 3.157 2.437 5.152 2.437 h 2.502 C 89.728 46.255 89.343 45.428 88.804 44.718 z" style="stroke: none; stroke-width: 1; stroke-dasharray: none; stroke-linecap: butt; stroke-linejoin: miter; stroke-miterlimit: 10; fill: rgb(206,214,206); fill-rule: nonzero; opacity: 1;" transform=" matrix(1 0 0 1 0 0) " stroke-linecap="round"/>
	<path d="M 0.742 46.223 h 1.793 c 0.842 0 1.524 -0.682 1.524 -1.524 v -1.711 c 0 -0.842 -0.682 -1.524 -1.524 -1.524 H 1.679 L 0.742 46.223 z" style="stroke: none; stroke-width: 1; stroke-dasharray: none; stroke-linecap: butt; stroke-linejoin: miter; stroke-miterlimit: 10; fill: rgb(191,37,37); fill-rule: nonzero; opacity: 1;" transform=" matrix(1 0 0 1 0 0) " stroke-linecap="round"/>
</g>
</svg>