<svg xmlns="http://www.w3.org/2000/svg" xmlns:xlink="http://www.w3.org/1999/xlink" version="1.1" width="256" height="256" viewBox="0 0 256 256" xml:space="preserve">
<g style="stroke: none; stroke-width: 0; stroke-dasharray: none; stroke-linecap: butt; stroke-linejoin: miter; stroke-miterlimit: 10; fill: none; fill-rule: nonzero; opacity: 1;" transform="translate(1.4065934065934016 1.4065934065934016) scale(2.81 2.81)">
	<path d="M 77.883 82.14 H 12.117 C 5.977 82.14 1 77.163 1 71.023 v 0 c 0 -6.14 4.977 -11.117 11.117 -11.117 h 65.766 c 6.14 0 11.117 4.977 11.117 11.117 v 0 C 89 77.163 84.023 82.14 77.883 82.14 z" style="stroke: none; stroke-width: 1; stroke-dasharray: none; stroke-linecap: butt; stroke-linejoin: miter; stroke-miterlimit: 10; fill: rgb(221,234,237); fill-rule: nonzero; opacity: 1;" transform=" matrix(1 0 0 1 0 0) " stroke-linecap="round"/>
	<path d="M 33.596 59.906 h 22.807 c 5.733 -5.305 9.906 -13.234 9.906 -26.291 V 18.331 C 59.206 17.983 52.103 14.492 45 7.86 c -7.103 6.633 -14.206 10.123 -21.309 10.471 v 15.284 C 23.691 46.672 27.863 54.601 33.596 59.906 z" style="stroke: none; stroke-width: 1; stroke-dasharray: none; stroke-linecap: butt; stroke-linejoin: miter; stroke-miterlimit: 10; fill: rgb(46,140,204); fill-rule: nonzero; opacity: 1;" transform=" matrix(1 0 0 1 0 0) " stroke-linecap="round"/>
	<path d="M 45 50.191 L 45 50.191 c -4.256 0 -7.707 -3.45 -7.707 -7.707 v -5.683 h 15.413 v 5.683 C 52.707 46.741 49.256 50.191 45 50.191 z" style="stroke: none; stroke-width: 1; stroke-dasharray: none; stroke-linecap: butt; stroke-linejoin: miter; stroke-miterlimit: 10; fill: rgb(254,183,86); fill-rule: nonzero; opacity: 1;" transform=" matrix(1 0 0 1 0 0) " stroke-linecap="round"/>
	<path d="M 49.748 37.802 h -9.497 c -0.552 0 -1 -0.448 -1 -1 v -7.24 c 0 -3.169 2.579 -5.748 5.749 -5.748 s 5.748 2.579 5.748 5.748 v 7.24 C 50.748 37.354 50.301 37.802 49.748 37.802 z M 41.251 35.802 h 7.497 v -6.24 c 0 -2.067 -1.682 -3.748 -3.748 -3.748 c -2.067 0 -3.749 1.681 -3.749 3.748 V 35.802 z" style="stroke: none; stroke-width: 1; stroke-dasharray: none; stroke-linecap: butt; stroke-linejoin: miter; stroke-miterlimit: 10; fill: rgb(0,0,0); fill-rule: nonzero; opacity: 1;" transform=" matrix(1 0 0 1 0 0) " stroke-linecap="round"/>
	<path d="M 45 51.191 c -4.801 0 -8.707 -3.906 -8.707 -8.707 v -5.683 c 0 -0.552 0.448 -1 1 -1 h 15.414 c 0.553 0 1 0.448 1 1 v 5.683 C 53.707 47.285 49.801 51.191 45 51.191 z M 38.293 37.802 v 4.683 c 0 3.698 3.008 6.707 6.707 6.707 s 6.707 -3.009 6.707 -6.707 v -4.683 H 38.293 z" style="stroke: none; stroke-width: 1; stroke-dasharray: none; stroke-linecap: butt; stroke-linejoin: miter; stroke-miterlimit: 10; fill: rgb(0,0,0); fill-rule: nonzero; opacity: 1;" transform=" matrix(1 0 0 1 0 0) " stroke-linecap="round"/>
	<path d="M 45 44.14 c -0.13 0 -0.26 -0.03 -0.38 -0.08 c -0.13 -0.05 -0.23 -0.12 -0.33 -0.22 C 44.11 43.66 44 43.4 44 43.14 c 0 -0.26 0.11 -0.52 0.29 -0.71 c 0.1 -0.09 0.2 -0.16 0.33 -0.22 c 0.18 -0.07 0.38 -0.09 0.58 -0.05 c 0.06 0.01 0.12 0.03 0.18 0.05 c 0.06 0.03 0.12 0.06 0.18 0.1 c 0.05 0.03 0.1 0.08 0.15 0.12 c 0.09 0.09 0.16 0.2 0.21 0.32 c 0.06 0.13 0.08 0.26 0.08 0.39 c 0 0.26 -0.11 0.52 -0.29 0.7 c -0.05 0.05 -0.1 0.09 -0.15 0.13 c -0.06 0.04 -0.12 0.07 -0.18 0.09 c -0.06 0.03 -0.12 0.05 -0.18 0.06 C 45.13 44.13 45.06 44.14 45 44.14 z" style="stroke: none; stroke-width: 1; stroke-dasharray: none; stroke-linecap: butt; stroke-linejoin: miter; stroke-miterlimit: 10; fill: rgb(0,0,0); fill-rule: nonzero; opacity: 1;" transform=" matrix(1 0 0 1 0 0) " stroke-linecap="round"/>
	<path d="M 77.883 83.14 H 12.117 C 5.436 83.14 0 77.704 0 71.023 c 0 -6.682 5.436 -12.117 12.117 -12.117 h 65.766 C 84.564 58.906 90 64.342 90 71.023 C 90 77.704 84.564 83.14 77.883 83.14 z M 12.117 60.906 C 6.539 60.906 2 65.444 2 71.023 C 2 76.602 6.539 81.14 12.117 81.14 h 65.766 C 83.462 81.14 88 76.602 88 71.023 c 0 -5.579 -4.538 -10.117 -10.117 -10.117 H 12.117 z" style="stroke: none; stroke-width: 1; stroke-dasharray: none; stroke-linecap: butt; stroke-linejoin: miter; stroke-miterlimit: 10; fill: rgb(0,0,0); fill-rule: nonzero; opacity: 1;" transform=" matrix(1 0 0 1 0 0) " stroke-linecap="round"/>
	<path d="M 45 78.24 c -0.552 0 -1 -0.447 -1 -1 V 64.807 c 0 -0.553 0.448 -1 1 -1 s 1 0.447 1 1 V 77.24 C 46 77.793 45.552 78.24 45 78.24 z" style="stroke: none; stroke-width: 1; stroke-dasharray: none; stroke-linecap: butt; stroke-linejoin: miter; stroke-miterlimit: 10; fill: rgb(0,0,0); fill-rule: nonzero; opacity: 1;" transform=" matrix(1 0 0 1 0 0) " stroke-linecap="round"/>
	<path d="M 51.217 72.023 H 38.783 c -0.552 0 -1 -0.447 -1 -1 s 0.448 -1 1 -1 h 12.434 c 0.553 0 1 0.447 1 1 S 51.77 72.023 51.217 72.023 z" style="stroke: none; stroke-width: 1; stroke-dasharray: none; stroke-linecap: butt; stroke-linejoin: miter; stroke-miterlimit: 10; fill: rgb(0,0,0); fill-rule: nonzero; opacity: 1;" transform=" matrix(1 0 0 1 0 0) " stroke-linecap="round"/>
	<path d="M 40.604 76.419 c -0.256 0 -0.512 -0.098 -0.707 -0.293 c -0.391 -0.391 -0.391 -1.023 0 -1.414 l 8.792 -8.792 c 0.391 -0.391 1.023 -0.391 1.414 0 s 0.391 1.023 0 1.414 l -8.792 8.792 C 41.116 76.321 40.86 76.419 40.604 76.419 z" style="stroke: none; stroke-width: 1; stroke-dasharray: none; stroke-linecap: butt; stroke-linejoin: miter; stroke-miterlimit: 10; fill: rgb(0,0,0); fill-rule: nonzero; opacity: 1;" transform=" matrix(1 0 0 1 0 0) " stroke-linecap="round"/>
	<path d="M 49.396 76.419 c -0.256 0 -0.512 -0.098 -0.707 -0.293 l -8.792 -8.792 c -0.391 -0.391 -0.391 -1.023 0 -1.414 s 1.023 -0.391 1.414 0 l 8.792 8.792 c 0.391 0.391 0.391 1.023 0 1.414 C 49.907 76.321 49.651 76.419 49.396 76.419 z" style="stroke: none; stroke-width: 1; stroke-dasharray: none; stroke-linecap: butt; stroke-linejoin: miter; stroke-miterlimit: 10; fill: rgb(0,0,0); fill-rule: nonzero; opacity: 1;" transform=" matrix(1 0 0 1 0 0) " stroke-linecap="round"/>
	<path d="M 56.403 60.906 H 33.596 c -0.252 0 -0.494 -0.095 -0.679 -0.266 C 26.036 54.272 22.69 45.432 22.69 33.615 V 18.331 c 0 -0.533 0.418 -0.973 0.951 -0.999 c 6.828 -0.334 13.784 -3.767 20.676 -10.203 c 0.385 -0.358 0.98 -0.358 1.365 0 c 6.893 6.436 13.849 9.869 20.676 10.203 c 0.533 0.026 0.951 0.466 0.951 0.999 v 15.284 c 0 11.817 -3.346 20.656 -10.227 27.025 C 56.897 60.812 56.655 60.906 56.403 60.906 z M 33.992 58.906 h 22.016 c 6.258 -5.95 9.302 -14.229 9.302 -25.291 v -14.35 C 58.538 18.672 51.714 15.297 45 9.218 c -6.713 6.079 -13.538 9.454 -20.31 10.047 v 14.35 C 24.69 44.678 27.734 52.956 33.992 58.906 z" style="stroke: none; stroke-width: 1; stroke-dasharray: none; stroke-linecap: butt; stroke-linejoin: miter; stroke-miterlimit: 10; fill: rgb(0,0,0); fill-rule: nonzero; opacity: 1;" transform=" matrix(1 0 0 1 0 0) " stroke-linecap="round"/>
	<path d="M 66.729 78.24 c -0.553 0 -1 -0.447 -1 -1 V 64.807 c 0 -0.553 0.447 -1 1 -1 s 1 0.447 1 1 V 77.24 C 67.729 77.793 67.281 78.24 66.729 78.24 z" style="stroke: none; stroke-width: 1; stroke-dasharray: none; stroke-linecap: butt; stroke-linejoin: miter; stroke-miterlimit: 10; fill: rgb(0,0,0); fill-rule: nonzero; opacity: 1;" transform=" matrix(1 0 0 1 0 0) " stroke-linecap="round"/>
	<path d="M 72.945 72.023 H 60.512 c -0.553 0 -1 -0.447 -1 -1 s 0.447 -1 1 -1 h 12.434 c 0.553 0 1 0.447 1 1 S 73.498 72.023 72.945 72.023 z" style="stroke: none; stroke-width: 1; stroke-dasharray: none; stroke-linecap: butt; stroke-linejoin: miter; stroke-miterlimit: 10; fill: rgb(0,0,0); fill-rule: nonzero; opacity: 1;" transform=" matrix(1 0 0 1 0 0) " stroke-linecap="round"/>
	<path d="M 62.333 76.419 c -0.256 0 -0.512 -0.098 -0.707 -0.293 c -0.391 -0.391 -0.391 -1.023 0 -1.414 l 8.792 -8.792 c 0.391 -0.391 1.023 -0.391 1.414 0 s 0.391 1.023 0 1.414 l -8.792 8.792 C 62.845 76.321 62.589 76.419 62.333 76.419 z" style="stroke: none; stroke-width: 1; stroke-dasharray: none; stroke-linecap: butt; stroke-linejoin: miter; stroke-miterlimit: 10; fill: rgb(0,0,0); fill-rule: nonzero; opacity: 1;" transform=" matrix(1 0 0 1 0 0) " stroke-linecap="round"/>
	<path d="M 71.125 76.419 c -0.256 0 -0.512 -0.098 -0.707 -0.293 l -8.792 -8.792 c -0.391 -0.391 -0.391 -1.023 0 -1.414 s 1.023 -0.391 1.414 0 l 8.792 8.792 c 0.391 0.391 0.391 1.023 0 1.414 C 71.637 76.321 71.381 76.419 71.125 76.419 z" style="stroke: none; stroke-width: 1; stroke-dasharray: none; stroke-linecap: butt; stroke-linejoin: miter; stroke-miterlimit: 10; fill: rgb(0,0,0); fill-rule: nonzero; opacity: 1;" transform=" matrix(1 0 0 1 0 0) " stroke-linecap="round"/>
	<path d="M 23.271 78.24 c -0.552 0 -1 -0.447 -1 -1 V 64.807 c 0 -0.553 0.448 -1 1 -1 s 1 0.447 1 1 V 77.24 C 24.271 77.793 23.823 78.24 23.271 78.24 z" style="stroke: none; stroke-width: 1; stroke-dasharray: none; stroke-linecap: butt; stroke-linejoin: miter; stroke-miterlimit: 10; fill: rgb(0,0,0); fill-rule: nonzero; opacity: 1;" transform=" matrix(1 0 0 1 0 0) " stroke-linecap="round"/>
	<path d="M 29.488 72.023 H 17.054 c -0.552 0 -1 -0.447 -1 -1 s 0.448 -1 1 -1 h 12.434 c 0.552 0 1 0.447 1 1 S 30.04 72.023 29.488 72.023 z" style="stroke: none; stroke-width: 1; stroke-dasharray: none; stroke-linecap: butt; stroke-linejoin: miter; stroke-miterlimit: 10; fill: rgb(0,0,0); fill-rule: nonzero; opacity: 1;" transform=" matrix(1 0 0 1 0 0) " stroke-linecap="round"/>
	<path d="M 18.875 76.419 c -0.256 0 -0.512 -0.098 -0.707 -0.293 c -0.391 -0.391 -0.391 -1.023 0 -1.414 l 8.792 -8.792 c 0.391 -0.391 1.023 -0.391 1.414 0 s 0.391 1.023 0 1.414 l -8.792 8.792 C 19.387 76.321 19.131 76.419 18.875 76.419 z" style="stroke: none; stroke-width: 1; stroke-dasharray: none; stroke-linecap: butt; stroke-linejoin: miter; stroke-miterlimit: 10; fill: rgb(0,0,0); fill-rule: nonzero; opacity: 1;" transform=" matrix(1 0 0 1 0 0) " stroke-linecap="round"/>
	<path d="M 27.667 76.419 c -0.256 0 -0.512 -0.098 -0.707 -0.293 l -8.792 -8.792 c -0.391 -0.391 -0.391 -1.023 0 -1.414 s 1.023 -0.391 1.414 0 l 8.792 8.792 c 0.391 0.391 0.391 1.023 0 1.414 C 28.179 76.321 27.923 76.419 27.667 76.419 z" style="stroke: none; stroke-width: 1; stroke-dasharray: none; stroke-linecap: butt; stroke-linejoin: miter; stroke-miterlimit: 10; fill: rgb(0,0,0); fill-rule: nonzero; opacity: 1;" transform=" matrix(1 0 0 1 0 0) " stroke-linecap="round"/>
</g>
</svg>