<svg xmlns="http://www.w3.org/2000/svg" xmlns:xlink="http://www.w3.org/1999/xlink" version="1.1" width="256" height="256" viewBox="0 0 256 256" xml:space="preserve">
<g style="stroke: none; stroke-width: 0; stroke-dasharray: none; stroke-linecap: butt; stroke-linejoin: miter; stroke-miterlimit: 10; fill: none; fill-rule: nonzero; opacity: 1;" transform="translate(1.4065934065934016 1.4065934065934016) scale(2.81 2.81)">
	<circle cx="45" cy="45" r="45" style="stroke: none; stroke-width: 1; stroke-dasharray: none; stroke-linecap: butt; stroke-linejoin: miter; stroke-miterlimit: 10; fill: rgb(75,174,79); fill-rule: nonzero; opacity: 1;" transform="  matrix(1 0 0 1 0 0) "/>
	<path d="M 40.119 53.69 c -0.781 0.781 -0.781 2.047 0 2.828 c 0.391 0.391 0.902 0.586 1.414 0.586 s 1.024 -0.195 1.414 -0.586 l 10.103 -10.103 c 0.093 -0.093 0.177 -0.196 0.251 -0.306 c 0.033 -0.049 0.055 -0.102 0.083 -0.153 c 0.035 -0.063 0.073 -0.124 0.101 -0.192 c 0.027 -0.066 0.043 -0.134 0.063 -0.202 c 0.017 -0.057 0.039 -0.112 0.051 -0.171 c 0.051 -0.259 0.051 -0.525 0 -0.783 c -0.012 -0.059 -0.034 -0.114 -0.051 -0.171 c -0.02 -0.068 -0.036 -0.136 -0.063 -0.202 c -0.028 -0.067 -0.066 -0.128 -0.101 -0.192 c -0.028 -0.051 -0.05 -0.104 -0.083 -0.153 c -0.074 -0.11 -0.157 -0.213 -0.251 -0.306 L 42.947 33.482 c -0.78 -0.781 -2.048 -0.781 -2.828 0 c -0.781 0.781 -0.781 2.047 0 2.828 l 6.69 6.69 H 22.204 c -1.104 0 -2 0.896 -2 2 s 0.896 2 2 2 h 24.605 L 40.119 53.69 z" style="stroke: none; stroke-width: 1; stroke-dasharray: none; stroke-linecap: butt; stroke-linejoin: miter; stroke-miterlimit: 10; fill: rgb(255,255,255); fill-rule: nonzero; opacity: 1;" transform=" matrix(1 0 0 1 0 0) " stroke-linecap="round"/>
	<path d="M 65.796 22.062 H 28.613 c -1.104 0 -2 0.896 -2 2 v 8.602 c 0 1.104 0.896 2 2 2 s 2 -0.896 2 -2 v -6.602 h 33.183 v 37.875 H 30.613 v -6.602 c 0 -1.104 -0.896 -2 -2 -2 s -2 0.896 -2 2 v 8.602 c 0 1.104 0.896 2 2 2 h 37.183 c 1.104 0 2 -0.896 2 -2 V 24.062 C 67.796 22.958 66.9 22.062 65.796 22.062 z" style="stroke: none; stroke-width: 1; stroke-dasharray: none; stroke-linecap: butt; stroke-linejoin: miter; stroke-miterlimit: 10; fill: rgb(255,255,255); fill-rule: nonzero; opacity: 1;" transform=" matrix(1 0 0 1 0 0) " stroke-linecap="round"/>
</g>
</svg>