<svg xmlns="http://www.w3.org/2000/svg" xmlns:xlink="http://www.w3.org/1999/xlink" version="1.1" width="256" height="256" viewBox="0 0 256 256" xml:space="preserve">
<g style="stroke: none; stroke-width: 0; stroke-dasharray: none; stroke-linecap: butt; stroke-linejoin: miter; stroke-miterlimit: 10; fill: none; fill-rule: nonzero; opacity: 1;" transform="translate(1.4065934065934016 1.4065934065934016) scale(2.81 2.81)">
	<polygon points="62.29,37.73 51.59,27 44.33,26.48 43.85,26.48 36.99,27.99 35.99,33.82 37.99,38.05 43.03,39.33 56.84,39.33 " style="stroke: none; stroke-width: 1; stroke-dasharray: none; stroke-linecap: butt; stroke-linejoin: miter; stroke-miterlimit: 10; fill: rgb(32,36,30); fill-rule: nonzero; opacity: 1;" transform="  matrix(1 0 0 1 0 0) "/>
	<path d="M 89.984 51.969 l -0.403 -5.578 c -0.245 -3.379 -2.857 -6.173 -6.212 -6.643 l -19.155 -2.686 l -7.763 -8.067 c -1.935 -2.01 -4.645 -3.164 -7.435 -3.164 H 36.25 c -2.125 0 -3.853 1.728 -3.853 3.853 v 7.292 H 4.153 C 1.863 36.976 0 38.838 0 41.128 v 11.377 c 0 3.28 2.668 5.948 5.953 5.948 l 5.201 -0.017 h 73.819 l 0.023 -0.085 c 1.286 -0.228 2.483 -0.861 3.383 -1.828 C 89.52 55.3 90.105 53.639 89.984 51.969 z M 41.138 28.831 h 7.879 c 1.979 0 3.9 0.818 5.272 2.244 l 5.678 5.9 H 43.925 c -1.536 0 -2.787 -1.25 -2.787 -2.787 V 28.831 z" style="stroke: none; stroke-width: 1; stroke-dasharray: none; stroke-linecap: butt; stroke-linejoin: miter; stroke-miterlimit: 10; fill: rgb(219,51,40); fill-rule: nonzero; opacity: 1;" transform=" matrix(1 0 0 1 0 0) " stroke-linecap="round"/>
	<path d="M 89.978 51.878 c -0.51 0.213 -1.041 0.384 -1.595 0.475 l -0.025 0.085 H 8.123 L 2.47 52.454 c -0.875 0 -1.708 -0.162 -2.47 -0.452 v 0.504 c 0 3.28 2.668 5.948 5.953 5.948 l 5.201 -0.017 h 73.819 l 0.023 -0.085 c 1.286 -0.228 2.483 -0.861 3.383 -1.828 c 1.141 -1.226 1.726 -2.887 1.604 -4.557 L 89.978 51.878 z" style="stroke: none; stroke-width: 1; stroke-dasharray: none; stroke-linecap: butt; stroke-linejoin: miter; stroke-miterlimit: 10; fill: rgb(191,37,37); fill-rule: nonzero; opacity: 1;" transform=" matrix(1 0 0 1 0 0) " stroke-linecap="round"/>
	<path d="M 73.892 64.169 c -4.685 0 -8.496 -3.812 -8.496 -8.497 c 0 -4.685 3.812 -8.496 8.496 -8.496 c 4.685 0 8.496 3.812 8.496 8.496 C 82.388 60.357 78.576 64.169 73.892 64.169 z" style="stroke: none; stroke-width: 1; stroke-dasharray: none; stroke-linecap: butt; stroke-linejoin: miter; stroke-miterlimit: 10; fill: rgb(32,36,30); fill-rule: nonzero; opacity: 1;" transform=" matrix(1 0 0 1 0 0) " stroke-linecap="round"/>
	<path d="M 19.529 64.169 c -4.685 0 -8.496 -3.812 -8.496 -8.497 c 0 -4.685 3.812 -8.496 8.496 -8.496 c 4.685 0 8.497 3.812 8.497 8.496 C 28.025 60.357 24.214 64.169 19.529 64.169 z" style="stroke: none; stroke-width: 1; stroke-dasharray: none; stroke-linecap: butt; stroke-linejoin: miter; stroke-miterlimit: 10; fill: rgb(32,36,30); fill-rule: nonzero; opacity: 1;" transform=" matrix(1 0 0 1 0 0) " stroke-linecap="round"/>
	<path d="M 19.529 60.172 c -2.481 0 -4.5 -2.019 -4.5 -4.5 c 0 -2.481 2.019 -4.5 4.5 -4.5 c 2.481 0 4.5 2.019 4.5 4.5 C 24.029 58.153 22.01 60.172 19.529 60.172 z" style="stroke: none; stroke-width: 1; stroke-dasharray: none; stroke-linecap: butt; stroke-linejoin: miter; stroke-miterlimit: 10; fill: rgb(80,83,78); fill-rule: nonzero; opacity: 1;" transform=" matrix(1 0 0 1 0 0) " stroke-linecap="round"/>
	<path d="M 73.892 60.172 c -2.481 0 -4.5 -2.019 -4.5 -4.501 c 0 -2.481 2.019 -4.5 4.5 -4.5 c 2.481 0 4.5 2.019 4.5 4.5 C 78.392 58.153 76.373 60.172 73.892 60.172 z" style="stroke: none; stroke-width: 1; stroke-dasharray: none; stroke-linecap: butt; stroke-linejoin: miter; stroke-miterlimit: 10; fill: rgb(80,83,78); fill-rule: nonzero; opacity: 1;" transform=" matrix(1 0 0 1 0 0) " stroke-linecap="round"/>
	<path d="M 89.581 46.391 c -0.105 -1.443 -0.66 -2.764 -1.502 -3.858 h -7.687 c 2.291 2.791 5.656 4.452 9.244 4.623 L 89.581 46.391 z" style="stroke: none; stroke-width: 1; stroke-dasharray: none; stroke-linecap: butt; stroke-linejoin: miter; stroke-miterlimit: 10; fill: rgb(206,214,206); fill-rule: nonzero; opacity: 1;" transform=" matrix(1 0 0 1 0 0) " stroke-linecap="round"/>
	<path d="M 2.356 40.772 l -2.32 0.001 C 0.026 40.892 0 41.007 0 41.128 v 5.847 h 2.309 c 1.098 0 1.988 -0.89 1.988 -1.988 v -2.232 C 4.297 41.674 3.432 40.798 2.356 40.772 z" style="stroke: none; stroke-width: 1; stroke-dasharray: none; stroke-linecap: butt; stroke-linejoin: miter; stroke-miterlimit: 10; fill: rgb(191,37,37); fill-rule: nonzero; opacity: 1;" transform=" matrix(1 0 0 1 0 0) " stroke-linecap="round"/>
</g>
</svg>