<svg xmlns="http://www.w3.org/2000/svg" xmlns:xlink="http://www.w3.org/1999/xlink" version="1.1" width="256" height="256" viewBox="0 0 256 256" xml:space="preserve">
<g style="stroke: none; stroke-width: 0; stroke-dasharray: none; stroke-linecap: butt; stroke-linejoin: miter; stroke-miterlimit: 10; fill: none; fill-rule: nonzero; opacity: 1;" transform="translate(1.4065934065934016 1.4065934065934016) scale(2.81 2.81)">
	<circle cx="45" cy="45" r="45" style="stroke: none; stroke-width: 1; stroke-dasharray: none; stroke-linecap: butt; stroke-linejoin: miter; stroke-miterlimit: 10; fill: rgb(0,171,242); fill-rule: nonzero; opacity: 1;" transform="  matrix(1 0 0 1 0 0) "/>
	<circle cx="36.997" cy="30.887" r="16.707" style="stroke: none; stroke-width: 1; stroke-dasharray: none; stroke-linecap: butt; stroke-linejoin: miter; stroke-miterlimit: 10; fill: rgb(255,255,255); fill-rule: nonzero; opacity: 1;" transform="  matrix(1 0 0 1 0 0) "/>
	<path d="M 79.827 43.46 h -6.532 v -6.532 c 0 -1.657 -1.343 -3 -3 -3 s -3 1.343 -3 3 v 6.532 h -6.532 c -1.657 0 -3 1.343 -3 3 c 0 1.657 1.343 3 3 3 h 6.532 v 6.532 c 0 1.657 1.343 3 3 3 s 3 -1.343 3 -3 V 49.46 h 6.532 c 1.657 0 3 -1.343 3 -3 C 82.827 44.803 81.484 43.46 79.827 43.46 z" style="stroke: none; stroke-width: 1; stroke-dasharray: none; stroke-linecap: butt; stroke-linejoin: miter; stroke-miterlimit: 10; fill: rgb(255,255,255); fill-rule: nonzero; opacity: 1;" transform=" matrix(1 0 0 1 0 0) " stroke-linecap="round"/>
	<path d="M 39.599 52.147 h -5.199 c -8.875 0 -16.486 5.321 -19.873 12.938 C 21.058 74.973 32.264 81.5 45 81.5 c 5.886 0 11.441 -1.402 16.365 -3.876 v -3.91 C 61.255 61.785 51.555 52.147 39.599 52.147 z" style="stroke: none; stroke-width: 1; stroke-dasharray: none; stroke-linecap: butt; stroke-linejoin: miter; stroke-miterlimit: 10; fill: rgb(255,255,255); fill-rule: nonzero; opacity: 1;" transform=" matrix(1 0 0 1 0 0) " stroke-linecap="round"/>
</g>
</svg>